<svg xmlns="http://www.w3.org/2000/svg" xmlns:xlink="http://www.w3.org/1999/xlink" width="0" height="0" style="display:none;">
<symbol viewBox="0 0 24 24" id="ri-volume-up-line"><path d="M6.60282 10.0001L10 7.22056V16.7796L6.60282 14.0001H3V10.0001H6.60282ZM2 16.0001H5.88889L11.1834 20.3319C11.2727 20.405 11.3846 20.4449 11.5 20.4449C11.7761 20.4449 12 20.2211 12 19.9449V4.05519C12 3.93977 11.9601 3.8279 11.887 3.73857C11.7121 3.52485 11.3971 3.49335 11.1834 3.66821L5.88889 8.00007H2C1.44772 8.00007 1 8.44778 1 9.00007V15.0001C1 15.5524 1.44772 16.0001 2 16.0001ZM23 12C23 15.292 21.5539 18.2463 19.2622 20.2622L17.8445 18.8444C19.7758 17.1937 21 14.7398 21 12C21 9.26016 19.7758 6.80629 17.8445 5.15557L19.2622 3.73779C21.5539 5.75368 23 8.70795 23 12ZM18 12C18 10.0883 17.106 8.38548 15.7133 7.28673L14.2842 8.71584C15.3213 9.43855 16 10.64 16 12C16 13.36 15.3213 14.5614 14.2842 15.2841L15.7133 16.7132C17.106 15.6145 18 13.9116 18 12Z"></path></symbol>
<symbol viewBox="0 0 24 24" id="ri-palette-line"><path d="M12 2C17.5222 2 22 5.97778 22 10.8889C22 13.9556 19.5111 16.4444 16.4444 16.4444H14.4778C13.5556 16.4444 12.8111 17.1889 12.8111 18.1111C12.8111 18.5333 12.9778 18.9222 13.2333 19.2111C13.5 19.5111 13.6667 19.9 13.6667 20.3333C13.6667 21.2556 12.9 22 12 22C6.47778 22 2 17.5222 2 12C2 6.47778 6.47778 2 12 2ZM10.8111 18.1111C10.8111 16.0843 12.451 14.4444 14.4778 14.4444H16.4444C18.4065 14.4444 20 12.851 20 10.8889C20 7.1392 16.4677 4 12 4C7.58235 4 4 7.58235 4 12C4 16.19 7.2226 19.6285 11.324 19.9718C10.9948 19.4168 10.8111 18.7761 10.8111 18.1111ZM7.5 12C6.67157 12 6 11.3284 6 10.5C6 9.67157 6.67157 9 7.5 9C8.32843 9 9 9.67157 9 10.5C9 11.3284 8.32843 12 7.5 12ZM16.5 12C15.6716 12 15 11.3284 15 10.5C15 9.67157 15.6716 9 16.5 9C17.3284 9 18 9.67157 18 10.5C18 11.3284 17.3284 12 16.5 12ZM12 9C11.1716 9 10.5 8.32843 10.5 7.5C10.5 6.67157 11.1716 6 12 6C12.8284 6 13.5 6.67157 13.5 7.5C13.5 8.32843 12.8284 9 12 9Z"></path></symbol>
<symbol viewBox="0 0 24 24" id="ri-smartphone-line"><path d="M7 4V20H17V4H7ZM6 2H18C18.5523 2 19 2.44772 19 3V21C19 21.5523 18.5523 22 18 22H6C5.44772 22 5 21.5523 5 21V3C5 2.44772 5.44772 2 6 2ZM12 17C12.5523 17 13 17.4477 13 18C13 18.5523 12.5523 19 12 19C11.4477 19 11 18.5523 11 18C11 17.4477 11.4477 17 12 17Z"></path></symbol>
<symbol viewBox="0 0 24 24" id="ri-save-line"><path d="M7 19V13H17V19H19V7.82843L16.1716 5H5V19H7ZM4 3H17L21 7V20C21 20.5523 20.5523 21 20 21H4C3.44772 21 3 20.5523 3 20V4C3 3.44772 3.44772 3 4 3ZM9 15V19H15V15H9Z"></path></symbol>
<symbol viewBox="0 0 24 24" id="ri-global-line"><path d="M12 22C6.47715 22 2 17.5228 2 12C2 6.47715 6.47715 2 12 2C17.5228 2 22 6.47715 22 12C22 17.5228 17.5228 22 12 22ZM9.71002 19.6674C8.74743 17.6259 8.15732 15.3742 8.02731 13H4.06189C4.458 16.1765 6.71639 18.7747 9.71002 19.6674ZM10.0307 13C10.1811 15.4388 10.8778 17.7297 12 19.752C13.1222 17.7297 13.8189 15.4388 13.9693 13H10.0307ZM19.9381 13H15.9727C15.8427 15.3742 15.2526 17.6259 14.29 19.6674C17.2836 18.7747 19.542 16.1765 19.9381 13ZM4.06189 11H8.02731C8.15732 8.62577 8.74743 6.37407 9.71002 4.33256C6.71639 5.22533 4.458 7.8235 4.06189 11ZM10.0307 11H13.9693C13.8189 8.56122 13.1222 6.27025 12 4.24799C10.8778 6.27025 10.1811 8.56122 10.0307 11ZM14.29 4.33256C15.2526 6.37407 15.8427 8.62577 15.9727 11H19.9381C19.542 7.8235 17.2836 5.22533 14.29 4.33256Z"></path></symbol>
<symbol viewBox="0 0 24 24" id="ri-clipboard-line"><path d="M7 4V2H17V4H20.0066C20.5552 4 21 4.44495 21 4.9934V21.0066C21 21.5552 20.5551 22 20.0066 22H3.9934C3.44476 22 3 21.5551 3 21.0066V4.9934C3 4.44476 3.44495 4 3.9934 4H7ZM7 6H5V20H19V6H17V8H7V6ZM9 4V6H15V4H9Z"></path></symbol>
<symbol viewBox="0 0 24 24" id="ri-separator"><path d="M2 11H4V13H2V11ZM6 11H18V13H6V11ZM20 11H22V13H20V11Z"></path></symbol>
<symbol viewBox="0 0 24 24" id="ri-hashtag"><path d="M7.78428 14L8.2047 10H4V8H8.41491L8.94043 3H10.9514L10.4259 8H14.4149L14.9404 3H16.9514L16.4259 8H20V10H16.2157L15.7953 14H20V16H15.5851L15.0596 21H13.0486L13.5741 16H9.58509L9.05957 21H7.04855L7.57407 16H4V14H7.78428ZM9.7953 14H13.7843L14.2047 10H10.2157L9.7953 14Z"></path></symbol>
<symbol viewBox="0 0 24 24" id="ri-delete-bin-line"><path d="M17 6H22V8H20V21C20 21.5523 19.5523 22 19 22H5C4.44772 22 4 21.5523 4 21V8H2V6H7V3C7 2.44772 7.44772 2 8 2H16C16.5523 2 17 2.44772 17 3V6ZM18 8H6V20H18V8ZM9 11H11V17H9V11ZM13 11H15V17H13V11ZM9 4V6H15V4H9Z"></path></symbol>
<symbol viewBox="0 0 24 24" id="ri-information-line"><path d="M12 22C6.47715 22 2 17.5228 2 12C2 6.47715 6.47715 2 12 2C17.5228 2 22 6.47715 22 12C22 17.5228 17.5228 22 12 22ZM12 20C16.4183 20 20 16.4183 20 12C20 7.58172 16.4183 4 12 4C7.58172 4 4 7.58172 4 12C4 16.4183 7.58172 20 12 20ZM11 7H13V9H11V7ZM11 11H13V17H11V11Z"></path></symbol>
<symbol viewBox="0 0 24 24" id="ri-close-line"><path d="M12 10.586l4.95-4.95 1.414 1.414-4.95 4.95 4.95 4.95-1.414 1.414-4.95-4.95-4.95 4.95-1.414-1.414 4.95-4.95-4.95-4.95L7.05 5.636z"></path></symbol>
<symbol viewBox="0 0 24 24" id="ri-time-line"><path d="M12 22C6.47715 22 2 17.5228 2 12C2 6.47715 6.47715 2 12 2C17.5228 2 22 6.47715 22 12C22 17.5228 17.5228 22 12 22ZM12 20C16.4183 20 20 16.4183 20 12C20 7.58172 16.4183 4 12 4C7.58172 4 4 7.58172 4 12C4 16.4183 7.58172 20 12 20ZM13 12H17V14H11V7H13V12Z"></path></symbol>
<symbol viewBox="0 0 24 24" id="ri-number-0"><path d="M12 1.5C13.3212 1.5 14.4839 1.84812 15.4468 2.49362C16.4098 3.13913 17.1731 4.08202 17.6956 5.27156C18.2182 6.4611 18.5 7.8973 18.5 9.52941V14.4706C18.5 16.1027 18.2182 17.5389 17.6956 18.7284C17.1731 19.918 16.4098 20.8609 15.4468 21.5064C14.4839 22.1519 13.3212 22.5 12 22.5C10.6788 22.5 9.51613 22.1519 8.55317 21.5064C7.5902 20.8609 6.82691 19.918 6.30436 18.7284C5.78181 17.5389 5.5 16.1027 5.5 14.4706V9.52941C5.5 7.8973 5.78181 6.4611 6.30436 5.27156C6.82691 4.08202 7.5902 3.13913 8.55317 2.49362C9.51613 1.84812 10.6788 1.5 12 1.5ZM12 3.5C11.084 3.5 10.3059 3.72649 9.66678 4.15491C9.02961 4.58202 8.50949 5.22453 8.13547 6.07594C7.72283 7.01528 7.5 8.18343 7.5 9.52941V14.4706C7.5 15.8166 7.72283 16.9847 8.13547 17.9241C8.50949 18.7755 9.02961 19.418 9.66678 19.8451C10.3059 20.2735 11.084 20.5 12 20.5C12.916 20.5 13.6941 20.2735 14.3332 19.8451C14.9704 19.418 15.4905 18.7755 15.8645 17.9241C16.2772 16.9847 16.5 15.8166 16.5 14.4706V9.52941C16.5 8.18343 16.2772 7.01528 15.8645 6.07594C15.4905 5.22453 14.9704 4.58202 14.3332 4.15491C13.6941 3.72649 12.916 3.5 12 3.5Z"></path></symbol>
<symbol viewBox="0 0 24 24" id="ri-number-1"><path d="M14 1.5V22H12V3.704L7.5 4.91V2.839L12.5 1.5H14Z"></path></symbol>
<symbol viewBox="0 0 24 24" id="ri-number-2"><path d="M16.0002 7.5C16.0002 5.29086 14.2094 3.5 12.0002 3.5C9.7911 3.5 8.00024 5.29086 8.00024 7.5H6.00024C6.00024 4.18629 8.68653 1.5 12.0002 1.5C15.314 1.5 18.0002 4.18629 18.0002 7.5C18.0002 8.93092 17.4993 10.2448 16.6633 11.276L9.344 19.9991L18.0002 20V22H6.00024L6 20.8731L15.0642 10.071C15.6485 9.37595 16.0002 8.47905 16.0002 7.5Z"></path></symbol>
<symbol viewBox="0 0 24 24" id="ri-number-3"><path d="M18.0001 2V3.36217L12.8087 9.54981C16.0169 9.94792 18.5001 12.684 18.5001 16C18.5001 19.5899 15.5899 22.5 12.0001 22.5C8.95434 22.5 6.39789 20.4052 5.69287 17.5778L7.63351 17.0922C8.12156 19.0497 9.89144 20.5 12.0001 20.5C14.4853 20.5 16.5001 18.4853 16.5001 16C16.5001 13.5147 14.4853 11.5 12.0001 11.5C11.2795 11.5 10.5985 11.6694 9.99465 11.9705L9.76692 12.0923L9.07705 10.8852L14.8551 3.99917L6.50006 4V2H18.0001Z"></path></symbol>
<symbol viewBox="0 0 24 24" id="ri-number-4"><path d="M16.0001 1.5L16 16H19.0001V18H16L16.0001 22H14.0001L14 18H4V16.898L14.0001 1.5H16.0001ZM14 16V5.171L6.968 16H14Z"></path></symbol>
<symbol viewBox="0 0 24 24" id="ri-number-5"><path d="M18.0001 2V4H9.30024L8.62337 10.4448C9.6075 9.84532 10.7634 9.5 12.0001 9.5C15.5899 9.5 18.5001 12.4101 18.5001 16C18.5001 19.5899 15.5899 22.5 12.0001 22.5C8.95434 22.5 6.39789 20.4052 5.69287 17.5778L7.63351 17.0922C8.12156 19.0497 9.89144 20.5 12.0001 20.5C14.4853 20.5 16.5001 18.4853 16.5001 16C16.5001 13.5147 14.4853 11.5 12.0001 11.5C9.97783 11.5 8.72237 12.139 8.03985 13.0293L6.46487 11.848L7.50006 2H18.0001Z"></path></symbol>
<symbol viewBox="0 0 24 24" id="ri-volume-mute-line"><path d="M10 7.22056L6.60282 10.0001H3V14.0001H6.60282L10 16.7796V7.22056ZM5.88889 16.0001H2C1.44772 16.0001 1 15.5524 1 15.0001V9.00007C1 8.44778 1.44772 8.00007 2 8.00007H5.88889L11.1834 3.66821C11.3971 3.49335 11.7121 3.52485 11.887 3.73857C11.9601 3.8279 12 3.93977 12 4.05519V19.9449C12 20.2211 11.7761 20.4449 11.5 20.4449C11.3846 20.4449 11.2727 20.405 11.1834 20.3319L5.88889 16.0001ZM20.4142 12.0001L23.9497 15.5356L22.5355 16.9498L19 13.4143L15.4645 16.9498L14.0503 15.5356L17.5858 12.0001L14.0503 8.46454L15.4645 7.05032L19 10.5859L22.5355 7.05032L23.9497 8.46454L20.4142 12.0001Z"></path></symbol>
<symbol viewBox="0 0 24 24" id="ri-music-line"><path d="M12 13.5351V3H20V5H14V17C14 19.2091 12.2091 21 10 21C7.79086 21 6 19.2091 6 17C6 14.7909 7.79086 13 10 13C10.7286 13 11.4117 13.1948 12 13.5351ZM10 19C11.1046 19 12 18.1046 12 17C12 15.8954 11.1046 15 10 15C8.89543 15 8 15.8954 8 17C8 18.1046 8.89543 19 10 19Z"></path></symbol>
<symbol viewBox="0 0 24 24" id="ri-sound-module-line"><path d="M21 18V21H19V18H17V16H23V18H21ZM5 18V21H3V18H1V16H7V18H5ZM11 6V3H13V6H15V8H9V6H11ZM11 10H13V21H11V10ZM3 14V3H5V14H3ZM19 14V3H21V14H19Z"></path></symbol>
<symbol viewBox="0 0 24 24" id="ri-speaker-line"><path d="M5 4V20H19V4H5ZM4 2H20C20.5523 2 21 2.44772 21 3V21C21 21.5523 20.5523 22 20 22H4C3.44772 22 3 21.5523 3 21V3C3 2.44772 3.44772 2 4 2ZM12 17C13.3807 17 14.5 15.8807 14.5 14.5C14.5 13.1193 13.3807 12 12 12C10.6193 12 9.5 13.1193 9.5 14.5C9.5 15.8807 10.6193 17 12 17ZM12 19C9.51472 19 7.5 16.9853 7.5 14.5C7.5 12.0147 9.51472 10 12 10C14.4853 10 16.5 12.0147 16.5 14.5C16.5 16.9853 14.4853 19 12 19ZM12 8.5C11.1716 8.5 10.5 7.82843 10.5 7C10.5 6.17157 11.1716 5.5 12 5.5C12.8284 5.5 13.5 6.17157 13.5 7C13.5 7.82843 12.8284 8.5 12 8.5Z"></path></symbol>
<symbol viewBox="0 0 24 24" id="ri-fingerprint-line"><path d="M17.0003 13V14C17.0003 16.7696 16.3364 19.445 15.0853 21.8455L14.8585 22.2663L13.1116 21.2924C14.2716 19.2115 14.9211 16.8817 14.9935 14.4559L15.0003 14V13H17.0003ZM11.0003 10H13.0003V14L12.9948 14.3787C12.9153 17.1495 11.9645 19.7731 10.3038 21.928L10.073 22.2189L8.52406 20.9536C10.0408 19.0969 10.9145 16.8017 10.9943 14.3663L11.0003 14V10ZM12.0003 6C14.7617 6 17.0003 8.23858 17.0003 11H15.0003C15.0003 9.34315 13.6571 8 12.0003 8C10.3434 8 9.00025 9.34315 9.00025 11V14C9.00025 16.2354 8.1806 18.3444 6.72928 19.9768L6.51767 20.2067L5.06955 18.8273C6.23328 17.6056 6.92099 16.0118 6.99381 14.3027L7.00025 14V11C7.00025 8.23858 9.23883 6 12.0003 6ZM12.0003 2C16.9708 2 21.0003 6.02944 21.0003 11V14C21.0003 15.6979 20.7985 17.3699 20.4035 18.9903L20.2647 19.5285L18.3349 19.0032C18.726 17.5662 18.9475 16.0808 18.9919 14.5684L19.0003 14V11C19.0003 7.13401 15.8662 4 12.0003 4C10.4279 4 8.97663 4.51841 7.80805 5.39364L6.38308 3.96769C7.92267 2.73631 9.87547 2 12.0003 2ZM4.96794 5.38282L6.39389 6.8078C5.5635 7.91652 5.0543 9.27971 5.00431 10.7593L4.99961 10.999L5.00378 13C5.00378 14.1195 4.73991 15.2026 4.24263 16.1772L4.08648 16.4663L2.34961 15.4747C2.72889 14.8103 2.95077 14.0681 2.99539 13.2924L3.00378 13L3.00361 11C3.00025 8.87522 3.73656 6.92242 4.96794 5.38282Z"></path></symbol>
<symbol viewBox="0 0 24 24" id="ri-calculator-line"><path d="M4 2H20C20.5523 2 21 2.44772 21 3V21C21 21.5523 20.5523 22 20 22H4C3.44772 22 3 21.5523 3 21V3C3 2.44772 3.44772 2 4 2ZM5 4V20H19V4H5ZM7 6H17V10H7V6ZM7 12H9V14H7V12ZM7 16H9V18H7V16ZM11 12H13V14H11V12ZM11 16H13V18H11V16ZM15 12H17V18H15V12Z"></path></symbol>
<symbol viewBox="0 0 24 24" id="ri-check-line"><path d="M9.9997 15.1709L19.1921 5.97852L20.6063 7.39273L9.9997 17.9993L3.63574 11.6354L5.04996 10.2212L9.9997 15.1709Z"></path></symbol>
<symbol viewBox="0 0 24 24" id="ri-error-warning-line"><path d="M12 22C6.47715 22 2 17.5228 2 12C2 6.47715 6.47715 2 12 2C17.5228 2 22 6.47715 22 12C22 17.5228 17.5228 22 12 22ZM12 20C16.4183 20 20 16.4183 20 12C20 7.58172 16.4183 4 12 4C7.58172 4 4 7.58172 4 12C4 16.4183 7.58172 20 12 20ZM11 15H13V17H11V15ZM11 7H13V13H11V7Z"></path></symbol>
</svg>